<?xml version="1.0" encoding="utf-8" standalone="no"?>
<!DOCTYPE svg PUBLIC "-//W3C//DTD SVG 1.1//EN"
  "http://www.w3.org/Graphics/SVG/1.1/DTD/svg11.dtd">
<svg xmlns:xlink="http://www.w3.org/1999/xlink" width="554.380625pt" height="397.024063pt" viewBox="0 0 554.380625 397.024063" xmlns="http://www.w3.org/2000/svg" version="1.1">
 <metadata>
  <rdf:RDF xmlns:dc="http://purl.org/dc/elements/1.1/" xmlns:cc="http://creativecommons.org/ns#" xmlns:rdf="http://www.w3.org/1999/02/22-rdf-syntax-ns#">
   <cc:Work>
    <dc:type rdf:resource="http://purl.org/dc/dcmitype/StillImage"/>
    <dc:date>2025-12-21T16:33:23.625419</dc:date>
    <dc:format>image/svg+xml</dc:format>
    <dc:creator>
     <cc:Agent>
      <dc:title>Matplotlib v3.10.1, https://matplotlib.org/</dc:title>
     </cc:Agent>
    </dc:creator>
   </cc:Work>
  </rdf:RDF>
 </metadata>
 <defs>
  <style type="text/css">*{stroke-linejoin: round; stroke-linecap: butt}</style>
 </defs>
 <g id="figure_1">
  <g id="patch_1">
   <path d="M 0 397.024063 
L 554.380625 397.024063 
L 554.380625 0 
L 0 0 
z
" style="fill: #ffffff"/>
  </g>
  <g id="axes_1">
   <g id="patch_2">
    <path d="M 100.780625 339.84 
L 547.180625 339.84 
L 547.180625 7.2 
L 100.780625 7.2 
z
" style="fill: #ffffff"/>
   </g>
   <g id="matplotlib.axis_1">
    <g id="xtick_1">
     <g id="line2d_1">
      <path d="M 121.109485 339.84 
L 121.109485 7.2 
" clip-path="url(#p22b4524170)" style="fill: none; stroke: #b0b0b0; stroke-opacity: 0.3; stroke-width: 0.8; stroke-linecap: square"/>
     </g>
     <g id="line2d_2">
      <defs>
       <path id="m5c29caaa77" d="M 0 0 
L 0 3.5 
" style="stroke: #000000; stroke-width: 0.8"/>
      </defs>
      <g>
       <use xlink:href="#m5c29caaa77" x="121.109485" y="339.84" style="stroke: #000000; stroke-width: 0.8"/>
      </g>
     </g>
     <g id="text_1">
      <!-- 0 -->
      <g transform="translate(116.104641 359.724063) scale(0.18 -0.18)">
       <defs>
        <path id="ArialMT-30" d="M 266 2259 
Q 266 3072 433 3567 
Q 600 4063 929 4331 
Q 1259 4600 1759 4600 
Q 2128 4600 2406 4451 
Q 2684 4303 2865 4023 
Q 3047 3744 3150 3342 
Q 3253 2941 3253 2259 
Q 3253 1453 3087 958 
Q 2922 463 2592 192 
Q 2263 -78 1759 -78 
Q 1097 -78 719 397 
Q 266 969 266 2259 
z
M 844 2259 
Q 844 1131 1108 757 
Q 1372 384 1759 384 
Q 2147 384 2411 759 
Q 2675 1134 2675 2259 
Q 2675 3391 2411 3762 
Q 2147 4134 1753 4134 
Q 1366 4134 1134 3806 
Q 844 3388 844 2259 
z
" transform="scale(0.015625)"/>
       </defs>
       <use xlink:href="#ArialMT-30"/>
      </g>
     </g>
    </g>
    <g id="xtick_2">
     <g id="line2d_3">
      <path d="M 192.696779 339.84 
L 192.696779 7.2 
" clip-path="url(#p22b4524170)" style="fill: none; stroke: #b0b0b0; stroke-opacity: 0.3; stroke-width: 0.8; stroke-linecap: square"/>
     </g>
     <g id="line2d_4">
      <g>
       <use xlink:href="#m5c29caaa77" x="192.696779" y="339.84" style="stroke: #000000; stroke-width: 0.8"/>
      </g>
     </g>
     <g id="text_2">
      <!-- 100000 -->
      <g transform="translate(162.667717 359.724063) scale(0.18 -0.18)">
       <defs>
        <path id="ArialMT-31" d="M 2384 0 
L 1822 0 
L 1822 3584 
Q 1619 3391 1289 3197 
Q 959 3003 697 2906 
L 697 3450 
Q 1169 3672 1522 3987 
Q 1875 4303 2022 4600 
L 2384 4600 
L 2384 0 
z
" transform="scale(0.015625)"/>
       </defs>
       <use xlink:href="#ArialMT-31"/>
       <use xlink:href="#ArialMT-30" transform="translate(55.615234 0)"/>
       <use xlink:href="#ArialMT-30" transform="translate(111.230469 0)"/>
       <use xlink:href="#ArialMT-30" transform="translate(166.845703 0)"/>
       <use xlink:href="#ArialMT-30" transform="translate(222.460938 0)"/>
       <use xlink:href="#ArialMT-30" transform="translate(278.076172 0)"/>
      </g>
     </g>
    </g>
    <g id="xtick_3">
     <g id="line2d_5">
      <path d="M 264.284074 339.84 
L 264.284074 7.2 
" clip-path="url(#p22b4524170)" style="fill: none; stroke: #b0b0b0; stroke-opacity: 0.3; stroke-width: 0.8; stroke-linecap: square"/>
     </g>
     <g id="line2d_6">
      <g>
       <use xlink:href="#m5c29caaa77" x="264.284074" y="339.84" style="stroke: #000000; stroke-width: 0.8"/>
      </g>
     </g>
     <g id="text_3">
      <!-- 200000 -->
      <g transform="translate(234.255011 359.724063) scale(0.18 -0.18)">
       <defs>
        <path id="ArialMT-32" d="M 3222 541 
L 3222 0 
L 194 0 
Q 188 203 259 391 
Q 375 700 629 1000 
Q 884 1300 1366 1694 
Q 2113 2306 2375 2664 
Q 2638 3022 2638 3341 
Q 2638 3675 2398 3904 
Q 2159 4134 1775 4134 
Q 1369 4134 1125 3890 
Q 881 3647 878 3216 
L 300 3275 
Q 359 3922 746 4261 
Q 1134 4600 1788 4600 
Q 2447 4600 2831 4234 
Q 3216 3869 3216 3328 
Q 3216 3053 3103 2787 
Q 2991 2522 2730 2228 
Q 2469 1934 1863 1422 
Q 1356 997 1212 845 
Q 1069 694 975 541 
L 3222 541 
z
" transform="scale(0.015625)"/>
       </defs>
       <use xlink:href="#ArialMT-32"/>
       <use xlink:href="#ArialMT-30" transform="translate(55.615234 0)"/>
       <use xlink:href="#ArialMT-30" transform="translate(111.230469 0)"/>
       <use xlink:href="#ArialMT-30" transform="translate(166.845703 0)"/>
       <use xlink:href="#ArialMT-30" transform="translate(222.460938 0)"/>
       <use xlink:href="#ArialMT-30" transform="translate(278.076172 0)"/>
      </g>
     </g>
    </g>
    <g id="xtick_4">
     <g id="line2d_7">
      <path d="M 335.871368 339.84 
L 335.871368 7.2 
" clip-path="url(#p22b4524170)" style="fill: none; stroke: #b0b0b0; stroke-opacity: 0.3; stroke-width: 0.8; stroke-linecap: square"/>
     </g>
     <g id="line2d_8">
      <g>
       <use xlink:href="#m5c29caaa77" x="335.871368" y="339.84" style="stroke: #000000; stroke-width: 0.8"/>
      </g>
     </g>
     <g id="text_4">
      <!-- 300000 -->
      <g transform="translate(305.842306 359.724063) scale(0.18 -0.18)">
       <defs>
        <path id="ArialMT-33" d="M 269 1209 
L 831 1284 
Q 928 806 1161 595 
Q 1394 384 1728 384 
Q 2125 384 2398 659 
Q 2672 934 2672 1341 
Q 2672 1728 2419 1979 
Q 2166 2231 1775 2231 
Q 1616 2231 1378 2169 
L 1441 2663 
Q 1497 2656 1531 2656 
Q 1891 2656 2178 2843 
Q 2466 3031 2466 3422 
Q 2466 3731 2256 3934 
Q 2047 4138 1716 4138 
Q 1388 4138 1169 3931 
Q 950 3725 888 3313 
L 325 3413 
Q 428 3978 793 4289 
Q 1159 4600 1703 4600 
Q 2078 4600 2393 4439 
Q 2709 4278 2876 4000 
Q 3044 3722 3044 3409 
Q 3044 3113 2884 2869 
Q 2725 2625 2413 2481 
Q 2819 2388 3044 2092 
Q 3269 1797 3269 1353 
Q 3269 753 2831 336 
Q 2394 -81 1725 -81 
Q 1122 -81 723 278 
Q 325 638 269 1209 
z
" transform="scale(0.015625)"/>
       </defs>
       <use xlink:href="#ArialMT-33"/>
       <use xlink:href="#ArialMT-30" transform="translate(55.615234 0)"/>
       <use xlink:href="#ArialMT-30" transform="translate(111.230469 0)"/>
       <use xlink:href="#ArialMT-30" transform="translate(166.845703 0)"/>
       <use xlink:href="#ArialMT-30" transform="translate(222.460938 0)"/>
       <use xlink:href="#ArialMT-30" transform="translate(278.076172 0)"/>
      </g>
     </g>
    </g>
    <g id="xtick_5">
     <g id="line2d_9">
      <path d="M 407.458663 339.84 
L 407.458663 7.2 
" clip-path="url(#p22b4524170)" style="fill: none; stroke: #b0b0b0; stroke-opacity: 0.3; stroke-width: 0.8; stroke-linecap: square"/>
     </g>
     <g id="line2d_10">
      <g>
       <use xlink:href="#m5c29caaa77" x="407.458663" y="339.84" style="stroke: #000000; stroke-width: 0.8"/>
      </g>
     </g>
     <g id="text_5">
      <!-- 400000 -->
      <g transform="translate(377.4296 359.724063) scale(0.18 -0.18)">
       <defs>
        <path id="ArialMT-34" d="M 2069 0 
L 2069 1097 
L 81 1097 
L 81 1613 
L 2172 4581 
L 2631 4581 
L 2631 1613 
L 3250 1613 
L 3250 1097 
L 2631 1097 
L 2631 0 
L 2069 0 
z
M 2069 1613 
L 2069 3678 
L 634 1613 
L 2069 1613 
z
" transform="scale(0.015625)"/>
       </defs>
       <use xlink:href="#ArialMT-34"/>
       <use xlink:href="#ArialMT-30" transform="translate(55.615234 0)"/>
       <use xlink:href="#ArialMT-30" transform="translate(111.230469 0)"/>
       <use xlink:href="#ArialMT-30" transform="translate(166.845703 0)"/>
       <use xlink:href="#ArialMT-30" transform="translate(222.460938 0)"/>
       <use xlink:href="#ArialMT-30" transform="translate(278.076172 0)"/>
      </g>
     </g>
    </g>
    <g id="xtick_6">
     <g id="line2d_11">
      <path d="M 479.045957 339.84 
L 479.045957 7.2 
" clip-path="url(#p22b4524170)" style="fill: none; stroke: #b0b0b0; stroke-opacity: 0.3; stroke-width: 0.8; stroke-linecap: square"/>
     </g>
     <g id="line2d_12">
      <g>
       <use xlink:href="#m5c29caaa77" x="479.045957" y="339.84" style="stroke: #000000; stroke-width: 0.8"/>
      </g>
     </g>
     <g id="text_6">
      <!-- 500000 -->
      <g transform="translate(449.016894 359.724063) scale(0.18 -0.18)">
       <defs>
        <path id="ArialMT-35" d="M 266 1200 
L 856 1250 
Q 922 819 1161 601 
Q 1400 384 1738 384 
Q 2144 384 2425 690 
Q 2706 997 2706 1503 
Q 2706 1984 2436 2262 
Q 2166 2541 1728 2541 
Q 1456 2541 1237 2417 
Q 1019 2294 894 2097 
L 366 2166 
L 809 4519 
L 3088 4519 
L 3088 3981 
L 1259 3981 
L 1013 2750 
Q 1425 3038 1878 3038 
Q 2478 3038 2890 2622 
Q 3303 2206 3303 1553 
Q 3303 931 2941 478 
Q 2500 -78 1738 -78 
Q 1113 -78 717 272 
Q 322 622 266 1200 
z
" transform="scale(0.015625)"/>
       </defs>
       <use xlink:href="#ArialMT-35"/>
       <use xlink:href="#ArialMT-30" transform="translate(55.615234 0)"/>
       <use xlink:href="#ArialMT-30" transform="translate(111.230469 0)"/>
       <use xlink:href="#ArialMT-30" transform="translate(166.845703 0)"/>
       <use xlink:href="#ArialMT-30" transform="translate(222.460938 0)"/>
       <use xlink:href="#ArialMT-30" transform="translate(278.076172 0)"/>
      </g>
     </g>
    </g>
    <g id="text_7">
     <!-- Z' (Ω) -->
     <g transform="translate(294.065 384.772813) scale(0.24 -0.24)">
      <defs>
       <path id="ArialMT-5a" d="M 128 0 
L 128 563 
L 2475 3497 
Q 2725 3809 2950 4041 
L 394 4041 
L 394 4581 
L 3675 4581 
L 3675 4041 
L 1103 863 
L 825 541 
L 3750 541 
L 3750 0 
L 128 0 
z
" transform="scale(0.015625)"/>
       <path id="ArialMT-27" d="M 425 2959 
L 281 3816 
L 281 4581 
L 922 4581 
L 922 3816 
L 772 2959 
L 425 2959 
z
" transform="scale(0.015625)"/>
       <path id="ArialMT-20" transform="scale(0.015625)"/>
       <path id="ArialMT-28" d="M 1497 -1347 
Q 1031 -759 709 28 
Q 388 816 388 1659 
Q 388 2403 628 3084 
Q 909 3875 1497 4659 
L 1900 4659 
Q 1522 4009 1400 3731 
Q 1209 3300 1100 2831 
Q 966 2247 966 1656 
Q 966 153 1900 -1347 
L 1497 -1347 
z
" transform="scale(0.015625)"/>
       <path id="ArialMT-3a9" d="M 303 541 
L 1303 541 
Q 353 1334 353 2478 
Q 353 3100 603 3594 
Q 853 4088 1309 4373 
Q 1766 4659 2406 4659 
Q 3041 4659 3464 4396 
Q 3888 4134 4161 3643 
Q 4434 3153 4434 2478 
Q 4434 1334 3484 541 
L 4484 541 
L 4484 0 
L 2703 0 
L 2703 506 
Q 3816 1025 3816 2384 
Q 3816 3150 3423 3645 
Q 3031 4141 2403 4141 
Q 1756 4141 1368 3642 
Q 981 3144 981 2416 
Q 981 1038 2088 506 
L 2088 0 
L 303 0 
L 303 541 
z
" transform="scale(0.015625)"/>
       <path id="ArialMT-29" d="M 791 -1347 
L 388 -1347 
Q 1322 153 1322 1656 
Q 1322 2244 1188 2822 
Q 1081 3291 891 3722 
Q 769 4003 388 4659 
L 791 4659 
Q 1378 3875 1659 3084 
Q 1900 2403 1900 1659 
Q 1900 816 1576 28 
Q 1253 -759 791 -1347 
z
" transform="scale(0.015625)"/>
      </defs>
      <use xlink:href="#ArialMT-5a"/>
      <use xlink:href="#ArialMT-27" transform="translate(61.083984 0)"/>
      <use xlink:href="#ArialMT-20" transform="translate(80.175781 0)"/>
      <use xlink:href="#ArialMT-28" transform="translate(107.958984 0)"/>
      <use xlink:href="#ArialMT-3a9" transform="translate(141.259766 0)"/>
      <use xlink:href="#ArialMT-29" transform="translate(216.015625 0)"/>
     </g>
    </g>
   </g>
   <g id="matplotlib.axis_2">
    <g id="ytick_1">
     <g id="line2d_13">
      <path d="M 100.780625 277.48236 
L 547.180625 277.48236 
" clip-path="url(#p22b4524170)" style="fill: none; stroke: #b0b0b0; stroke-opacity: 0.3; stroke-width: 0.8; stroke-linecap: square"/>
     </g>
     <g id="line2d_14">
      <defs>
       <path id="m223e552d05" d="M 0 0 
L -3.5 0 
" style="stroke: #000000; stroke-width: 0.8"/>
      </defs>
      <g>
       <use xlink:href="#m223e552d05" x="100.780625" y="277.48236" style="stroke: #000000; stroke-width: 0.8"/>
      </g>
     </g>
     <g id="text_8">
      <!-- 0 -->
      <g transform="translate(83.770938 283.924391) scale(0.18 -0.18)">
       <use xlink:href="#ArialMT-30"/>
      </g>
     </g>
    </g>
    <g id="ytick_2">
     <g id="line2d_15">
      <path d="M 100.780625 205.895065 
L 547.180625 205.895065 
" clip-path="url(#p22b4524170)" style="fill: none; stroke: #b0b0b0; stroke-opacity: 0.3; stroke-width: 0.8; stroke-linecap: square"/>
     </g>
     <g id="line2d_16">
      <g>
       <use xlink:href="#m223e552d05" x="100.780625" y="205.895065" style="stroke: #000000; stroke-width: 0.8"/>
      </g>
     </g>
     <g id="text_9">
      <!-- 100000 -->
      <g transform="translate(33.7225 212.337097) scale(0.18 -0.18)">
       <use xlink:href="#ArialMT-31"/>
       <use xlink:href="#ArialMT-30" transform="translate(55.615234 0)"/>
       <use xlink:href="#ArialMT-30" transform="translate(111.230469 0)"/>
       <use xlink:href="#ArialMT-30" transform="translate(166.845703 0)"/>
       <use xlink:href="#ArialMT-30" transform="translate(222.460938 0)"/>
       <use xlink:href="#ArialMT-30" transform="translate(278.076172 0)"/>
      </g>
     </g>
    </g>
    <g id="ytick_3">
     <g id="line2d_17">
      <path d="M 100.780625 134.307771 
L 547.180625 134.307771 
" clip-path="url(#p22b4524170)" style="fill: none; stroke: #b0b0b0; stroke-opacity: 0.3; stroke-width: 0.8; stroke-linecap: square"/>
     </g>
     <g id="line2d_18">
      <g>
       <use xlink:href="#m223e552d05" x="100.780625" y="134.307771" style="stroke: #000000; stroke-width: 0.8"/>
      </g>
     </g>
     <g id="text_10">
      <!-- 200000 -->
      <g transform="translate(33.7225 140.749802) scale(0.18 -0.18)">
       <use xlink:href="#ArialMT-32"/>
       <use xlink:href="#ArialMT-30" transform="translate(55.615234 0)"/>
       <use xlink:href="#ArialMT-30" transform="translate(111.230469 0)"/>
       <use xlink:href="#ArialMT-30" transform="translate(166.845703 0)"/>
       <use xlink:href="#ArialMT-30" transform="translate(222.460938 0)"/>
       <use xlink:href="#ArialMT-30" transform="translate(278.076172 0)"/>
      </g>
     </g>
    </g>
    <g id="ytick_4">
     <g id="line2d_19">
      <path d="M 100.780625 62.720477 
L 547.180625 62.720477 
" clip-path="url(#p22b4524170)" style="fill: none; stroke: #b0b0b0; stroke-opacity: 0.3; stroke-width: 0.8; stroke-linecap: square"/>
     </g>
     <g id="line2d_20">
      <g>
       <use xlink:href="#m223e552d05" x="100.780625" y="62.720477" style="stroke: #000000; stroke-width: 0.8"/>
      </g>
     </g>
     <g id="text_11">
      <!-- 300000 -->
      <g transform="translate(33.7225 69.162508) scale(0.18 -0.18)">
       <use xlink:href="#ArialMT-33"/>
       <use xlink:href="#ArialMT-30" transform="translate(55.615234 0)"/>
       <use xlink:href="#ArialMT-30" transform="translate(111.230469 0)"/>
       <use xlink:href="#ArialMT-30" transform="translate(166.845703 0)"/>
       <use xlink:href="#ArialMT-30" transform="translate(222.460938 0)"/>
       <use xlink:href="#ArialMT-30" transform="translate(278.076172 0)"/>
      </g>
     </g>
    </g>
    <g id="text_12">
     <!-- -Z'' (Ω) -->
     <g transform="translate(24.67125 209.7225) rotate(-90) scale(0.24 -0.24)">
      <defs>
       <path id="ArialMT-2d" d="M 203 1375 
L 203 1941 
L 1931 1941 
L 1931 1375 
L 203 1375 
z
" transform="scale(0.015625)"/>
      </defs>
      <use xlink:href="#ArialMT-2d"/>
      <use xlink:href="#ArialMT-5a" transform="translate(33.300781 0)"/>
      <use xlink:href="#ArialMT-27" transform="translate(94.384766 0)"/>
      <use xlink:href="#ArialMT-27" transform="translate(113.476562 0)"/>
      <use xlink:href="#ArialMT-20" transform="translate(132.568359 0)"/>
      <use xlink:href="#ArialMT-28" transform="translate(160.351562 0)"/>
      <use xlink:href="#ArialMT-3a9" transform="translate(193.652344 0)"/>
      <use xlink:href="#ArialMT-29" transform="translate(268.408203 0)"/>
     </g>
    </g>
   </g>
   <g id="line2d_21">
    <defs>
     <path id="m7d4b13631f" d="M 0 2 
C 0.530406 2 1.03916 1.789267 1.414214 1.414214 
C 1.789267 1.03916 2 0.530406 2 0 
C 2 -0.530406 1.789267 -1.03916 1.414214 -1.414214 
C 1.03916 -1.789267 0.530406 -2 0 -2 
C -0.530406 -2 -1.03916 -1.789267 -1.414214 -1.414214 
C -1.789267 -1.03916 -2 -0.530406 -2 0 
C -2 0.530406 -1.789267 1.03916 -1.414214 1.414214 
C -1.03916 1.789267 -0.530406 2 0 2 
z
" style="stroke: #0000ff"/>
    </defs>
    <g clip-path="url(#p22b4524170)">
     <use xlink:href="#m7d4b13631f" x="121.128046" y="277.511742" style="fill: #0000ff; stroke: #0000ff"/>
     <use xlink:href="#m7d4b13631f" x="121.121401" y="277.488325" style="fill: #0000ff; stroke: #0000ff"/>
     <use xlink:href="#m7d4b13631f" x="121.111587" y="277.469624" style="fill: #0000ff; stroke: #0000ff"/>
     <use xlink:href="#m7d4b13631f" x="121.113221" y="277.435095" style="fill: #0000ff; stroke: #0000ff"/>
     <use xlink:href="#m7d4b13631f" x="121.071534" y="277.406016" style="fill: #0000ff; stroke: #0000ff"/>
     <use xlink:href="#m7d4b13631f" x="121.132455" y="277.347915" style="fill: #0000ff; stroke: #0000ff"/>
     <use xlink:href="#m7d4b13631f" x="121.134359" y="277.310941" style="fill: #0000ff; stroke: #0000ff"/>
     <use xlink:href="#m7d4b13631f" x="121.14295" y="277.232242" style="fill: #0000ff; stroke: #0000ff"/>
     <use xlink:href="#m7d4b13631f" x="121.184934" y="277.178588" style="fill: #0000ff; stroke: #0000ff"/>
     <use xlink:href="#m7d4b13631f" x="121.288768" y="277.195062" style="fill: #0000ff; stroke: #0000ff"/>
     <use xlink:href="#m7d4b13631f" x="121.275567" y="277.132683" style="fill: #0000ff; stroke: #0000ff"/>
     <use xlink:href="#m7d4b13631f" x="121.336336" y="277.058681" style="fill: #0000ff; stroke: #0000ff"/>
     <use xlink:href="#m7d4b13631f" x="121.357963" y="276.986933" style="fill: #0000ff; stroke: #0000ff"/>
     <use xlink:href="#m7d4b13631f" x="121.39556" y="276.889025" style="fill: #0000ff; stroke: #0000ff"/>
     <use xlink:href="#m7d4b13631f" x="121.417957" y="276.768149" style="fill: #0000ff; stroke: #0000ff"/>
     <use xlink:href="#m7d4b13631f" x="121.437316" y="276.599463" style="fill: #0000ff; stroke: #0000ff"/>
     <use xlink:href="#m7d4b13631f" x="121.456903" y="276.371813" style="fill: #0000ff; stroke: #0000ff"/>
     <use xlink:href="#m7d4b13631f" x="121.47912" y="276.071691" style="fill: #0000ff; stroke: #0000ff"/>
     <use xlink:href="#m7d4b13631f" x="121.506107" y="275.678202" style="fill: #0000ff; stroke: #0000ff"/>
     <use xlink:href="#m7d4b13631f" x="121.529772" y="275.175432" style="fill: #0000ff; stroke: #0000ff"/>
     <use xlink:href="#m7d4b13631f" x="121.617546" y="274.449303" style="fill: #0000ff; stroke: #0000ff"/>
     <use xlink:href="#m7d4b13631f" x="121.685722" y="273.593032" style="fill: #0000ff; stroke: #0000ff"/>
     <use xlink:href="#m7d4b13631f" x="121.793526" y="272.460498" style="fill: #0000ff; stroke: #0000ff"/>
     <use xlink:href="#m7d4b13631f" x="121.9653" y="270.99631" style="fill: #0000ff; stroke: #0000ff"/>
     <use xlink:href="#m7d4b13631f" x="122.19791" y="269.122883" style="fill: #0000ff; stroke: #0000ff"/>
     <use xlink:href="#m7d4b13631f" x="122.555695" y="266.725409" style="fill: #0000ff; stroke: #0000ff"/>
     <use xlink:href="#m7d4b13631f" x="123.106054" y="263.531193" style="fill: #0000ff; stroke: #0000ff"/>
     <use xlink:href="#m7d4b13631f" x="123.995237" y="259.543947" style="fill: #0000ff; stroke: #0000ff"/>
     <use xlink:href="#m7d4b13631f" x="125.102926" y="254.664324" style="fill: #0000ff; stroke: #0000ff"/>
     <use xlink:href="#m7d4b13631f" x="127.377485" y="248.295695" style="fill: #0000ff; stroke: #0000ff"/>
     <use xlink:href="#m7d4b13631f" x="130.519949" y="240.273642" style="fill: #0000ff; stroke: #0000ff"/>
     <use xlink:href="#m7d4b13631f" x="135.821112" y="230.283188" style="fill: #0000ff; stroke: #0000ff"/>
     <use xlink:href="#m7d4b13631f" x="141.897077" y="218.640485" style="fill: #0000ff; stroke: #0000ff"/>
     <use xlink:href="#m7d4b13631f" x="152.97639" y="208.994856" style="fill: #0000ff; stroke: #0000ff"/>
     <use xlink:href="#m7d4b13631f" x="167.94713" y="195.442539" style="fill: #0000ff; stroke: #0000ff"/>
     <use xlink:href="#m7d4b13631f" x="189.878063" y="187.635689" style="fill: #0000ff; stroke: #0000ff"/>
     <use xlink:href="#m7d4b13631f" x="211.689508" y="181.972427" style="fill: #0000ff; stroke: #0000ff"/>
     <use xlink:href="#m7d4b13631f" x="230.164658" y="177.485383" style="fill: #0000ff; stroke: #0000ff"/>
     <use xlink:href="#m7d4b13631f" x="252.643326" y="180.424773" style="fill: #0000ff; stroke: #0000ff"/>
     <use xlink:href="#m7d4b13631f" x="266.044623" y="175.788438" style="fill: #0000ff; stroke: #0000ff"/>
     <use xlink:href="#m7d4b13631f" x="283.177601" y="177.578391" style="fill: #0000ff; stroke: #0000ff"/>
     <use xlink:href="#m7d4b13631f" x="298.087861" y="198.482312" style="fill: #0000ff; stroke: #0000ff"/>
     <use xlink:href="#m7d4b13631f" x="314.18119" y="204.615326" style="fill: #0000ff; stroke: #0000ff"/>
     <use xlink:href="#m7d4b13631f" x="320.370939" y="217.310747" style="fill: #0000ff; stroke: #0000ff"/>
     <use xlink:href="#m7d4b13631f" x="334.273255" y="211.97047" style="fill: #0000ff; stroke: #0000ff"/>
     <use xlink:href="#m7d4b13631f" x="341.933292" y="218.283312" style="fill: #0000ff; stroke: #0000ff"/>
     <use xlink:href="#m7d4b13631f" x="343.034589" y="222.039169" style="fill: #0000ff; stroke: #0000ff"/>
     <use xlink:href="#m7d4b13631f" x="371.845281" y="191.370069" style="fill: #0000ff; stroke: #0000ff"/>
     <use xlink:href="#m7d4b13631f" x="362.130606" y="206.156096" style="fill: #0000ff; stroke: #0000ff"/>
     <use xlink:href="#m7d4b13631f" x="365.762361" y="162.101633" style="fill: #0000ff; stroke: #0000ff"/>
     <use xlink:href="#m7d4b13631f" x="405.254487" y="185.373219" style="fill: #0000ff; stroke: #0000ff"/>
     <use xlink:href="#m7d4b13631f" x="382.785633" y="204.855815" style="fill: #0000ff; stroke: #0000ff"/>
     <use xlink:href="#m7d4b13631f" x="404.566071" y="172.003758" style="fill: #0000ff; stroke: #0000ff"/>
     <use xlink:href="#m7d4b13631f" x="403.471492" y="155.331695" style="fill: #0000ff; stroke: #0000ff"/>
     <use xlink:href="#m7d4b13631f" x="441.34971" y="135.422338" style="fill: #0000ff; stroke: #0000ff"/>
     <use xlink:href="#m7d4b13631f" x="451.598912" y="128.910014" style="fill: #0000ff; stroke: #0000ff"/>
     <use xlink:href="#m7d4b13631f" x="463.834101" y="128.864862" style="fill: #0000ff; stroke: #0000ff"/>
     <use xlink:href="#m7d4b13631f" x="476.442645" y="122.755648" style="fill: #0000ff; stroke: #0000ff"/>
     <use xlink:href="#m7d4b13631f" x="490.886381" y="119.57551" style="fill: #0000ff; stroke: #0000ff"/>
     <use xlink:href="#m7d4b13631f" x="514.627177" y="92.925296" style="fill: #0000ff; stroke: #0000ff"/>
    </g>
   </g>
   <g id="line2d_22">
    <path d="M 121.168187 277.375608 
L 121.179036 277.353764 
L 121.191984 277.327278 
L 121.207458 277.295134 
L 121.225973 277.256084 
L 121.248156 277.208605 
L 121.274765 277.150833 
L 121.306733 277.080468 
L 121.345186 276.994714 
L 121.391505 276.890128 
L 121.447382 276.762485 
L 121.514895 276.60661 
L 121.596607 276.416126 
L 121.695628 276.183349 
L 121.815906 275.898629 
L 121.962272 275.550326 
L 122.140762 275.12418 
L 122.358921 274.602836 
L 122.626541 273.964468 
L 122.955479 273.18386 
L 123.361275 272.229538 
L 123.863617 271.064215 
L 124.487698 269.643899 
L 125.268995 267.910588 
L 126.244785 265.815829 
L 127.492092 263.247369 
L 129.066402 260.168426 
L 131.081723 256.466111 
L 133.66629 252.061573 
L 137.015659 246.841022 
L 141.336387 240.777622 
L 146.875156 233.897814 
L 154.013794 226.204824 
L 163.070597 217.939532 
L 174.42416 209.431053 
L 188.002323 201.40385 
L 204.142002 194.332732 
L 222.148886 189.102919 
L 241.235283 186.238889 
L 260.675356 185.909402 
L 279.364552 187.914517 
L 296.585057 191.674559 
L 312.011908 196.451122 
L 325.302238 201.370752 
L 336.823549 205.830039 
L 346.863828 209.333326 
L 355.957061 211.607315 
L 364.335427 212.418777 
L 372.465916 211.675009 
L 380.586389 209.321555 
L 389.122578 205.255551 
L 398.239617 199.445899 
L 408.229406 191.785952 
L 419.347647 182.15085 
L 431.759947 170.472451 
L 446.084986 156.213144 
L 462.319782 139.412593 
L 480.934561 119.627794 
L 502.480906 96.29827 
L 526.889716 69.528258 
" clip-path="url(#p22b4524170)" style="fill: none; stroke: #ff0000; stroke-width: 2; stroke-linecap: square"/>
   </g>
   <g id="patch_3">
    <path d="M 100.780625 339.84 
L 100.780625 7.2 
" style="fill: none; stroke: #000000; stroke-width: 0.8; stroke-linejoin: miter; stroke-linecap: square"/>
   </g>
   <g id="patch_4">
    <path d="M 547.180625 339.84 
L 547.180625 7.2 
" style="fill: none; stroke: #000000; stroke-width: 0.8; stroke-linejoin: miter; stroke-linecap: square"/>
   </g>
   <g id="patch_5">
    <path d="M 100.780625 339.84 
L 547.180625 339.84 
" style="fill: none; stroke: #000000; stroke-width: 0.8; stroke-linejoin: miter; stroke-linecap: square"/>
   </g>
   <g id="patch_6">
    <path d="M 100.780625 7.2 
L 547.180625 7.2 
" style="fill: none; stroke: #000000; stroke-width: 0.8; stroke-linejoin: miter; stroke-linecap: square"/>
   </g>
   <g id="legend_1">
    <g id="patch_7">
     <path d="M 117.580625 94.2975 
L 301.094375 94.2975 
Q 305.894375 94.2975 305.894375 89.4975 
L 305.894375 24 
Q 305.894375 19.2 301.094375 19.2 
L 117.580625 19.2 
Q 112.780625 19.2 112.780625 24 
L 112.780625 89.4975 
Q 112.780625 94.2975 117.580625 94.2975 
z
" style="fill: #ffffff; opacity: 0.8; stroke: #cccccc; stroke-linejoin: miter"/>
    </g>
    <g id="line2d_23">
     <g>
      <use xlink:href="#m7d4b13631f" x="146.380625" y="37.57875" style="fill: #0000ff; stroke: #0000ff"/>
     </g>
    </g>
    <g id="text_13">
     <!-- Measured -->
     <g transform="translate(189.580625 45.97875) scale(0.24 -0.24)">
      <defs>
       <path id="ArialMT-4d" d="M 475 0 
L 475 4581 
L 1388 4581 
L 2472 1338 
Q 2622 884 2691 659 
Q 2769 909 2934 1394 
L 4031 4581 
L 4847 4581 
L 4847 0 
L 4263 0 
L 4263 3834 
L 2931 0 
L 2384 0 
L 1059 3900 
L 1059 0 
L 475 0 
z
" transform="scale(0.015625)"/>
       <path id="ArialMT-65" d="M 2694 1069 
L 3275 997 
Q 3138 488 2766 206 
Q 2394 -75 1816 -75 
Q 1088 -75 661 373 
Q 234 822 234 1631 
Q 234 2469 665 2931 
Q 1097 3394 1784 3394 
Q 2450 3394 2872 2941 
Q 3294 2488 3294 1666 
Q 3294 1616 3291 1516 
L 816 1516 
Q 847 969 1125 678 
Q 1403 388 1819 388 
Q 2128 388 2347 550 
Q 2566 713 2694 1069 
z
M 847 1978 
L 2700 1978 
Q 2663 2397 2488 2606 
Q 2219 2931 1791 2931 
Q 1403 2931 1139 2672 
Q 875 2413 847 1978 
z
" transform="scale(0.015625)"/>
       <path id="ArialMT-61" d="M 2588 409 
Q 2275 144 1986 34 
Q 1697 -75 1366 -75 
Q 819 -75 525 192 
Q 231 459 231 875 
Q 231 1119 342 1320 
Q 453 1522 633 1644 
Q 813 1766 1038 1828 
Q 1203 1872 1538 1913 
Q 2219 1994 2541 2106 
Q 2544 2222 2544 2253 
Q 2544 2597 2384 2738 
Q 2169 2928 1744 2928 
Q 1347 2928 1158 2789 
Q 969 2650 878 2297 
L 328 2372 
Q 403 2725 575 2942 
Q 747 3159 1072 3276 
Q 1397 3394 1825 3394 
Q 2250 3394 2515 3294 
Q 2781 3194 2906 3042 
Q 3031 2891 3081 2659 
Q 3109 2516 3109 2141 
L 3109 1391 
Q 3109 606 3145 398 
Q 3181 191 3288 0 
L 2700 0 
Q 2613 175 2588 409 
z
M 2541 1666 
Q 2234 1541 1622 1453 
Q 1275 1403 1131 1340 
Q 988 1278 909 1158 
Q 831 1038 831 891 
Q 831 666 1001 516 
Q 1172 366 1500 366 
Q 1825 366 2078 508 
Q 2331 650 2450 897 
Q 2541 1088 2541 1459 
L 2541 1666 
z
" transform="scale(0.015625)"/>
       <path id="ArialMT-73" d="M 197 991 
L 753 1078 
Q 800 744 1014 566 
Q 1228 388 1613 388 
Q 2000 388 2187 545 
Q 2375 703 2375 916 
Q 2375 1106 2209 1216 
Q 2094 1291 1634 1406 
Q 1016 1563 777 1677 
Q 538 1791 414 1992 
Q 291 2194 291 2438 
Q 291 2659 392 2848 
Q 494 3038 669 3163 
Q 800 3259 1026 3326 
Q 1253 3394 1513 3394 
Q 1903 3394 2198 3281 
Q 2494 3169 2634 2976 
Q 2775 2784 2828 2463 
L 2278 2388 
Q 2241 2644 2061 2787 
Q 1881 2931 1553 2931 
Q 1166 2931 1000 2803 
Q 834 2675 834 2503 
Q 834 2394 903 2306 
Q 972 2216 1119 2156 
Q 1203 2125 1616 2013 
Q 2213 1853 2448 1751 
Q 2684 1650 2818 1456 
Q 2953 1263 2953 975 
Q 2953 694 2789 445 
Q 2625 197 2315 61 
Q 2006 -75 1616 -75 
Q 969 -75 630 194 
Q 291 463 197 991 
z
" transform="scale(0.015625)"/>
       <path id="ArialMT-75" d="M 2597 0 
L 2597 488 
Q 2209 -75 1544 -75 
Q 1250 -75 995 37 
Q 741 150 617 320 
Q 494 491 444 738 
Q 409 903 409 1263 
L 409 3319 
L 972 3319 
L 972 1478 
Q 972 1038 1006 884 
Q 1059 663 1231 536 
Q 1403 409 1656 409 
Q 1909 409 2131 539 
Q 2353 669 2445 892 
Q 2538 1116 2538 1541 
L 2538 3319 
L 3100 3319 
L 3100 0 
L 2597 0 
z
" transform="scale(0.015625)"/>
       <path id="ArialMT-72" d="M 416 0 
L 416 3319 
L 922 3319 
L 922 2816 
Q 1116 3169 1280 3281 
Q 1444 3394 1641 3394 
Q 1925 3394 2219 3213 
L 2025 2691 
Q 1819 2813 1613 2813 
Q 1428 2813 1281 2702 
Q 1134 2591 1072 2394 
Q 978 2094 978 1738 
L 978 0 
L 416 0 
z
" transform="scale(0.015625)"/>
       <path id="ArialMT-64" d="M 2575 0 
L 2575 419 
Q 2259 -75 1647 -75 
Q 1250 -75 917 144 
Q 584 363 401 755 
Q 219 1147 219 1656 
Q 219 2153 384 2558 
Q 550 2963 881 3178 
Q 1213 3394 1622 3394 
Q 1922 3394 2156 3267 
Q 2391 3141 2538 2938 
L 2538 4581 
L 3097 4581 
L 3097 0 
L 2575 0 
z
M 797 1656 
Q 797 1019 1065 703 
Q 1334 388 1700 388 
Q 2069 388 2326 689 
Q 2584 991 2584 1609 
Q 2584 2291 2321 2609 
Q 2059 2928 1675 2928 
Q 1300 2928 1048 2622 
Q 797 2316 797 1656 
z
" transform="scale(0.015625)"/>
      </defs>
      <use xlink:href="#ArialMT-4d"/>
      <use xlink:href="#ArialMT-65" transform="translate(83.300781 0)"/>
      <use xlink:href="#ArialMT-61" transform="translate(138.916016 0)"/>
      <use xlink:href="#ArialMT-73" transform="translate(194.53125 0)"/>
      <use xlink:href="#ArialMT-75" transform="translate(244.53125 0)"/>
      <use xlink:href="#ArialMT-72" transform="translate(300.146484 0)"/>
      <use xlink:href="#ArialMT-65" transform="translate(333.447266 0)"/>
      <use xlink:href="#ArialMT-64" transform="translate(389.0625 0)"/>
     </g>
    </g>
    <g id="line2d_24">
     <path d="M 122.380625 71.5275 
L 146.380625 71.5275 
L 170.380625 71.5275 
" style="fill: none; stroke: #ff0000; stroke-width: 2; stroke-linecap: square"/>
    </g>
    <g id="text_14">
     <!-- Fitted -->
     <g transform="translate(189.580625 79.9275) scale(0.24 -0.24)">
      <defs>
       <path id="ArialMT-46" d="M 525 0 
L 525 4581 
L 3616 4581 
L 3616 4041 
L 1131 4041 
L 1131 2622 
L 3281 2622 
L 3281 2081 
L 1131 2081 
L 1131 0 
L 525 0 
z
" transform="scale(0.015625)"/>
       <path id="ArialMT-69" d="M 425 3934 
L 425 4581 
L 988 4581 
L 988 3934 
L 425 3934 
z
M 425 0 
L 425 3319 
L 988 3319 
L 988 0 
L 425 0 
z
" transform="scale(0.015625)"/>
       <path id="ArialMT-74" d="M 1650 503 
L 1731 6 
Q 1494 -44 1306 -44 
Q 1000 -44 831 53 
Q 663 150 594 308 
Q 525 466 525 972 
L 525 2881 
L 113 2881 
L 113 3319 
L 525 3319 
L 525 4141 
L 1084 4478 
L 1084 3319 
L 1650 3319 
L 1650 2881 
L 1084 2881 
L 1084 941 
Q 1084 700 1114 631 
Q 1144 563 1211 522 
Q 1278 481 1403 481 
Q 1497 481 1650 503 
z
" transform="scale(0.015625)"/>
      </defs>
      <use xlink:href="#ArialMT-46"/>
      <use xlink:href="#ArialMT-69" transform="translate(61.083984 0)"/>
      <use xlink:href="#ArialMT-74" transform="translate(83.300781 0)"/>
      <use xlink:href="#ArialMT-74" transform="translate(111.083984 0)"/>
      <use xlink:href="#ArialMT-65" transform="translate(138.867188 0)"/>
      <use xlink:href="#ArialMT-64" transform="translate(194.482422 0)"/>
     </g>
    </g>
   </g>
  </g>
 </g>
 <defs>
  <clipPath id="p22b4524170">
   <rect x="100.780625" y="7.2" width="446.4" height="332.64"/>
  </clipPath>
 </defs>
</svg>
